<?xml version="1.0" encoding="utf-8"?>
<!-- Generator: Adobe Illustrator 26.3.1, SVG Export Plug-In . SVG Version: 6.00 Build 0)  -->
<svg version="1.1" id="Layer_1" xmlns="http://www.w3.org/2000/svg" xmlns:xlink="http://www.w3.org/1999/xlink" x="0px" y="0px"
	 viewBox="0 0 24 24" style="enable-background:new 0 0 24 24;" xml:space="preserve">
<style type="text/css">
	.st0{fill:#FF7B7B;}
	.st1{fill:#FFFFFF;}
</style>
<circle class="st0" cx="12" cy="12" r="12"/>
<path class="st1" d="M6.6,8.4v10.8h10.8V8.4H6.6z M9.6,16.8c0,0.3-0.3,0.6-0.6,0.6s-0.6-0.3-0.6-0.6v-6c0-0.3,0.3-0.6,0.6-0.6
	s0.6,0.3,0.6,0.6V16.8z M12.6,16.8c0,0.3-0.3,0.6-0.6,0.6s-0.6-0.3-0.6-0.6v-6c0-0.3,0.3-0.6,0.6-0.6s0.6,0.3,0.6,0.6V16.8z
	 M15.6,16.8c0,0.3-0.3,0.6-0.6,0.6s-0.6-0.3-0.6-0.6v-6c0-0.3,0.3-0.6,0.6-0.6s0.6,0.3,0.6,0.6V16.8z M18,6v1.2H6V6h3.4
	c0.5,0,1-0.7,1-1.2h3.2c0,0.5,0.4,1.2,1,1.2H18z"/>
</svg>
